<svg id="svg" xmlns="http://www.w3.org/2000/svg" xmlns:xlink="http://www.w3.org/1999/xlink" width="400" height="400" viewBox="0, 0, 400,400"><g id="svgg"><path id="path0" d="M111.372 86.150 C 79.072 93.158,70.987 135.071,98.418 153.307 C 123.211 169.790,156.920 150.364,155.333 120.508 C 154.141 98.076,132.904 81.479,111.372 86.150 M272.461 86.494 C 244.159 93.813,235.285 129.766,256.891 149.575 C 277.454 168.428,310.617 158.247,317.230 131.052 C 323.704 104.427,298.833 79.674,272.461 86.494 M103.125 170.335 C 78.251 173.316,59.128 188.312,53.439 209.298 C 52.446 212.962,51.925 230.673,52.701 234.405 C 53.932 240.328,57.810 244.812,63.581 246.983 C 65.781 247.810,66.289 247.828,92.618 247.958 L 119.415 248.091 119.925 245.627 C 124.188 225.026,140.770 209.056,160.988 206.080 C 163.779 205.669,167.971 205.469,173.781 205.469 C 178.533 205.469,182.422 205.363,182.422 205.233 C 182.422 205.104,181.743 203.549,180.913 201.777 C 173.373 185.689,158.380 175.001,137.500 170.829 C 134.026 170.135,107.927 169.760,103.125 170.335 M267.578 170.152 C 267.041 170.242,265.283 170.502,263.672 170.730 C 243.534 173.580,222.953 188.899,218.183 204.590 L 217.916 205.469 226.388 205.469 C 235.799 205.469,241.080 206.057,246.202 207.675 C 263.411 213.111,276.496 227.740,280.129 245.605 L 280.625 248.047 305.645 248.039 C 338.758 248.029,340.874 247.590,345.447 239.787 C 348.113 235.239,348.660 216.127,346.346 208.398 C 340.648 189.370,323.768 175.318,301.472 171.043 C 297.288 170.241,271.163 169.554,267.578 170.152 M160.443 217.409 C 147.242 219.824,136.635 229.485,132.047 243.272 C 130.916 246.672,122.672 277.128,120.872 284.558 C 115.063 308.537,141.829 324.988,158.237 307.524 C 159.400 306.286,163.664 301.522,167.713 296.937 C 172.669 291.325,175.505 288.421,176.392 288.050 C 178.565 287.143,221.705 287.245,223.629 288.163 C 224.531 288.593,227.970 292.150,233.442 298.314 C 244.739 311.038,246.415 312.459,251.771 313.854 C 264.657 317.210,276.964 309.113,279.552 295.577 C 280.619 289.997,280.559 289.722,268.941 246.746 C 264.838 231.569,255.630 221.707,241.992 217.881 L 238.867 217.005 201.172 216.929 C 170.039 216.867,162.948 216.951,160.443 217.409 M239.360 235.028 C 245.082 239.300,241.221 248.328,234.452 246.505 C 228.593 244.927,227.624 237.207,232.971 234.706 C 234.946 233.782,237.890 233.930,239.360 235.028 M169.952 237.470 L 171.094 238.612 171.094 243.720 L 171.094 248.828 176.315 248.828 C 183.453 248.828,183.594 248.936,183.594 254.392 C 183.594 259.899,183.765 259.766,176.697 259.766 L 171.094 259.766 171.094 265.017 C 171.094 272.038,170.797 272.461,165.863 272.461 C 160.765 272.461,160.395 271.974,160.216 265.031 L 160.080 259.766 154.476 259.766 C 147.560 259.766,147.656 259.841,147.656 254.388 C 147.656 249.014,147.897 248.828,154.865 248.828 L 160.156 248.828 160.156 244.323 C 160.156 237.248,160.779 236.359,165.753 236.340 C 168.619 236.329,168.882 236.400,169.952 237.470 M252.539 248.441 C 254.830 249.306,256.497 252.439,256.129 255.188 C 255.366 260.873,247.500 262.590,244.529 257.718 C 241.186 252.238,246.449 246.142,252.539 248.441 M225.395 248.926 C 230.877 252.657,228.720 260.550,222.220 260.545 C 218.345 260.543,216.020 258.198,216.017 254.290 C 216.014 249.298,221.408 246.213,225.395 248.926 M239.077 262.598 C 245.329 265.750,242.407 275.299,235.443 274.475 C 227.600 273.546,228.239 261.719,236.133 261.719 C 236.794 261.719,238.119 262.114,239.077 262.598 " stroke="none" fill="#000000" fill-rule="evenodd"></path></g></svg>